# xmcd
#
# Track frame offsets: 
#        150
#        21277
#        34767
#        53402
#        66720
#        78282
#        110390
#        125755
#        137220
#        158362
#        168610
#        190830
#        212940
#
# Disc length: 3056 seconds
#
# Revision: 3
# Processed by: cddbd v1.5.2PL0 Copyright (c) Steve Scherf et al.
# Submitted via: ExactAudioCopy v0.95b4
#
DISCID=b60bee0d
DTITLE=Souled American - Flubber
DYEAR=1989
DGENRE=Alternative
TTITLE0=All Good Things
TTITLE1=Mar'boro Man
TTITLE2=Wind To Dry
TTITLE3=Drop In The Basket
TTITLE4=Heywire
TTITLE5=The Torch Singer
TTITLE6=True Swamp
TTITLE7=Marleyphine Hank
TTITLE8=You And You Alone
TTITLE9=Cupa Cowfee
TTITLE10=Over The Hill
TTITLE11=Zillion
TTITLE12=Why, Are You
EXTD=
EXTT0=
EXTT1=
EXTT2=
EXTT3=
EXTT4=
EXTT5=
EXTT6=
EXTT7=
EXTT8=
EXTT9=
EXTT10=
EXTT11=
EXTT12=
PLAYORDER=
